<svg width="239" height="260" viewBox="0 0 239 260" fill="none" xmlns="http://www.w3.org/2000/svg">
<g clip-path="url(#clip0_8185_19257)">
<rect width="239" height="260" fill="#D9EE61"/>
<circle cx="24.5" cy="239.5" r="87.5" fill="#0E0E0E"/>
<path d="M123.841 167.559C124.039 186.342 112.309 218.106 91.7192 207.539C91.5306 207.442 91.3315 207.355 91.1319 207.283C75.2673 201.612 50.7981 172.401 57.9921 158.677C58.1003 158.47 58.2262 158.29 58.3733 158.109C61.6341 154.101 75.143 136.475 98.2626 131.816C101.449 131.174 103.765 134.736 102.354 137.664C98.091 146.512 91.9847 160.86 88.0624 172.356C87.3855 174.34 88.4385 176.44 90.5287 176.6C97.6487 177.144 110.369 174.669 117.199 166.8C119.633 163.996 123.801 163.846 123.841 167.559Z" fill="#0E0E0E"/>
<circle cx="87.5" cy="87.5" r="87.5" transform="matrix(-0.189219 0.981935 0.981935 0.189219 142.17 -87.8086)" fill="#0E0E0E"/>
<path d="M117.584 92.9609C135.736 97.7906 169.413 94.2661 164.257 71.7049C164.21 71.4983 164.174 71.2837 164.154 71.0727C162.575 54.299 140.31 23.3752 125.234 26.958C125.008 27.0119 124.802 27.0893 124.59 27.1872C119.901 29.3574 99.4856 38.0964 89.2623 59.3498C87.8532 62.2793 90.7335 65.4024 93.9198 64.7582C103.546 62.812 118.958 60.4374 131.066 59.4747C133.155 59.3086 134.93 60.8475 134.569 62.9124C133.338 69.9463 127.8 81.6616 118.488 86.3377C115.17 88.0043 113.995 92.0061 117.584 92.9609Z" fill="#0E0E0E"/>
</g>
<defs>
<clipPath id="clip0_8185_19257">
<rect width="239" height="260" fill="white"/>
</clipPath>
</defs>
</svg>
