<svg width="239" height="260" viewBox="0 0 239 260" fill="none" xmlns="http://www.w3.org/2000/svg">
<g clip-path="url(#clip0_8185_19266)">
<rect width="239" height="260" fill="#D9EE61"/>
<circle cx="60.675" cy="258.668" r="87.5" transform="rotate(-21.0608 60.675 258.668)" fill="#0E0E0E"/>
<path d="M127.529 155.834C134.463 173.29 134.931 207.148 111.92 204.686C111.709 204.663 111.492 204.653 111.28 204.658C94.4372 205.067 61.1053 186.601 62.8868 171.208C62.9136 170.976 62.9663 170.763 63.0385 170.541C64.6411 165.629 70.9137 144.326 90.8145 131.67C93.5575 129.925 96.9982 132.417 96.734 135.657C95.9355 145.446 95.3934 161.03 95.8641 173.167C95.9453 175.262 97.6827 176.843 99.6907 176.241C106.531 174.19 117.512 167.31 121.058 157.512C122.322 154.021 126.158 152.383 127.529 155.834Z" fill="#0E0E0E"/>
<circle cx="87.5" cy="87.5" r="87.5" transform="matrix(0.390391 0.920649 0.920649 -0.390391 71.9062 -52.6797)" fill="#0E0E0E"/>
<path d="M152.282 111.092C170.043 104.98 196.035 83.2782 179.176 67.4238C179.022 67.2786 178.872 67.1205 178.738 66.9564C168.076 53.9118 132.351 40.6543 121.833 52.034C121.675 52.2051 121.548 52.3842 121.426 52.5833C118.743 56.9996 106.668 75.6365 110.031 98.9799C110.495 102.197 114.627 103.184 116.913 100.873C123.819 93.8905 135.289 83.3263 144.804 75.7765C146.446 74.4735 148.777 74.7613 149.629 76.6769C152.529 83.2023 154.462 96.0158 149.34 105.089C147.514 108.323 148.771 112.3 152.282 111.092Z" fill="#0E0E0E"/>
</g>
<defs>
<clipPath id="clip0_8185_19266">
<rect width="239" height="260" fill="white"/>
</clipPath>
</defs>
</svg>
