<svg width="113" height="207" viewBox="0 0 113 207" fill="none" xmlns="http://www.w3.org/2000/svg">
<path d="M37.5595 196.579C63.223 202.076 91.4542 187.637 92.8116 162.561C93.6589 146.91 88.5077 134.469 77.0917 128.263C50.5855 113.854 20.0518 148.883 30.7616 189.968C31.6226 193.271 34.2218 195.864 37.5595 196.579Z" fill="#D9EE61"/>
<path d="M48.3967 95.2097C53.9729 105.477 85.0746 105.05 88.8405 89.6677C90.5222 82.7984 89.5593 77.662 85.5036 71.8682C75.7357 57.9141 51.7271 70.1327 48.2921 94.5913C48.2623 94.8032 48.2946 95.0217 48.3967 95.2097Z" fill="#D9EE61" stroke="#D9EE61" stroke-width="1.09006"/>
<path d="M64.5589 52.4432C50.3138 54.2932 40.1819 67.4857 42.0689 82.0182C43.956 96.5508 57.1214 106.718 71.3667 104.868C85.6121 103.018 95.7449 89.8258 93.8577 75.293C91.9703 60.7605 78.8042 50.5933 64.5589 52.4432Z" stroke="#0E0E0E" stroke-width="11.9906"/>
<path d="M26.9637 18.2808L35.7361 79.5307C36.4925 84.8115 43.601 85.9736 45.9997 81.2085L46.0968 81.0156C46.5994 80.0171 46.7829 78.8881 46.6222 77.7818L36.2104 6.07311C35.7467 2.8797 32.6255 0.786114 29.4949 1.56867L9.48804 6.56984C6.89141 7.21892 5.28476 9.81872 5.86562 12.4315C6.4825 15.2062 9.30896 16.8884 12.0421 16.1074L20.0709 13.813C23.2478 12.9052 26.4952 15.0102 26.9637 18.2808Z" fill="#0E0E0E"/>
<path d="M105.508 61.4841C102.726 66.4891 96.3685 71.7113 91.1158 67.5011C87.3456 64.2927 82.6896 56.5326 85.8348 52.5113C85.9131 52.4112 86.0045 52.3226 86.1015 52.2405C87.4099 51.1323 92.1889 46.9529 99.0239 46.2811C100.787 46.1078 101.701 48.2478 100.676 49.6931C98.9714 52.0966 96.8686 55.285 95.2338 58.0876C94.6581 59.0745 95.028 60.2835 96.1532 60.4819C97.9515 60.7988 100.495 60.7559 102.68 59.8974C104.564 59.1573 106.491 59.7151 105.508 61.4841Z" fill="#0E0E0E" stroke="#0E0E0E" stroke-width="1.09006"/>
<path d="M11.2264 201.979C41.7709 209.037 75.7831 191.946 77.4023 162.035C78.4025 143.56 72.3217 128.874 58.8457 121.548C27.3519 104.428 -8.95841 146.432 4.4097 195.339C5.30968 198.632 7.90065 201.21 11.2264 201.979Z" fill="#0E0E0E"/>
</svg>
