<svg width="153" height="152" viewBox="0 0 153 152" fill="none" xmlns="http://www.w3.org/2000/svg">
<path d="M55.877 146.343C45.103 142.838 35.6567 137.899 27.5383 131.526C19.5919 125.065 13.2783 117.557 8.59749 109C4.04645 100.486 1.28222 91.3332 0.304804 81.5413C-0.630382 71.6196 0.591116 61.4664 3.9693 51.0819C7.34748 40.6973 12.3123 31.8336 18.8637 24.4909C25.4573 17.0184 33.0988 11.1787 41.7881 6.97172C50.6072 2.80698 60.109 0.515067 70.2934 0.0959826C80.6499 -0.41068 91.2151 1.08842 101.989 4.59329C114.58 8.68933 125.091 14.5487 133.521 22.1714C142.08 29.8364 148.319 38.8995 152.236 49.3608L120.482 63.5769C117.757 56.9488 114.178 51.4062 109.742 46.9489C105.437 42.5339 100.039 39.2707 93.5484 37.1593C87.9666 35.3435 82.5437 34.5842 77.2794 34.8813C72.0152 35.1785 67.1255 36.5305 62.6103 38.9373C58.2672 41.2567 54.3409 44.501 50.8314 48.6705C47.4517 52.8822 44.8117 57.9087 42.9115 63.75C41.0113 69.5914 40.1886 75.2091 40.4435 80.6031C40.8282 86.0394 42.0731 91.0378 44.1781 95.5983C46.4552 100.071 49.6347 103.976 53.7166 107.314C57.7985 110.651 62.6303 113.228 68.212 115.044C74.7024 117.155 80.9871 117.692 87.0662 116.655C93.275 115.661 99.4307 113.285 105.533 109.529L122.846 139.707C113.566 145.731 103.189 149.389 91.7156 150.681C80.4145 151.885 68.4683 150.439 55.877 146.343Z" fill="#6552D0"/>
</svg>
