<svg width="366" height="320" viewBox="0 0 366 320" fill="none" xmlns="http://www.w3.org/2000/svg">
<rect width="366" height="320" fill="#0E0E0E"/>
<path d="M265.23 196.796L266.167 169.412L293.151 143.794L320.302 144.126L290.365 174.294L278.546 183.563L265.23 196.796ZM246.017 208.63L247.109 119.096L270.036 119.375L268.944 208.91L246.017 208.63ZM294.043 209.216L274.318 183.873L288.772 166.43L321.796 209.555L294.043 209.216Z" fill="#D9EE61"/>
<path d="M208.192 208.168L208.99 142.767L231.917 143.046L231.119 208.448L208.192 208.168ZM220.542 135.667C216.359 135.615 212.994 134.408 210.448 132.044C207.903 129.679 206.651 126.768 206.693 123.308C206.735 119.849 208.058 116.969 210.66 114.668C213.263 112.366 216.656 111.241 220.839 111.292C225.022 111.343 228.387 112.51 230.934 114.794C233.482 116.998 234.735 119.829 234.692 123.288C234.648 126.908 233.324 129.909 230.721 132.291C228.198 134.593 224.805 135.719 220.542 135.667Z" fill="#D9EE61"/>
<path d="M167.582 141.176C172.65 141.238 177.223 142.34 181.3 144.482C185.378 146.543 188.558 149.719 190.838 154.011C193.2 158.304 194.339 163.83 194.257 170.587L193.8 207.993L170.873 207.714L171.284 174.048C171.341 169.382 170.417 165.992 168.512 163.876C166.688 161.682 164.087 160.564 160.708 160.523C158.295 160.493 156.076 161.029 154.051 162.131C152.027 163.152 150.438 164.782 149.285 167.021C148.131 169.26 147.532 172.189 147.488 175.809L147.102 207.424L124.175 207.144L125.268 117.609L148.194 117.889L147.673 160.605L142.43 155.11C144.982 150.394 148.444 146.897 152.816 144.617C157.19 142.256 162.112 141.11 167.582 141.176Z" fill="#D9EE61"/>
<path d="M78.2543 208.271C71.5774 208.19 65.3958 207.069 59.7097 204.907C54.1051 202.667 49.2352 199.55 45.1002 195.557C41.0456 191.565 37.8842 186.9 35.6161 181.563C33.3489 176.144 32.2546 170.217 32.3332 163.782C32.4117 157.346 33.6498 151.488 36.0475 146.207C38.4462 140.846 41.7209 136.22 45.8717 132.328C50.103 128.437 55.047 125.48 60.7036 123.458C66.4418 121.355 72.6493 120.345 79.3262 120.426C87.1294 120.521 94.0713 121.974 100.152 124.784C106.313 127.594 111.413 131.599 115.453 136.797L100.081 150.368C97.385 147.117 94.3983 144.626 91.1206 142.897C87.9234 141.168 84.3137 140.279 80.2914 140.23C76.8323 140.188 73.6478 140.712 70.7381 141.803C67.8283 142.894 65.3144 144.513 63.1963 146.659C61.1596 148.726 59.5198 151.241 58.2768 154.202C57.1143 157.165 56.5109 160.456 56.4667 164.076C56.4226 167.696 56.9454 171.002 58.0353 173.992C59.2057 176.983 60.7832 179.577 62.7678 181.773C64.8339 183.89 67.308 185.53 70.1903 186.691C73.0726 187.853 76.2433 188.455 79.7025 188.497C83.7247 188.546 87.3551 187.745 90.5935 186.095C93.9124 184.446 96.959 182.03 99.7334 178.845L114.77 192.787C110.605 197.805 105.409 201.684 99.1799 204.424C93.0327 207.084 86.0575 208.367 78.2543 208.271Z" fill="#6552D0"/>
</svg>
