<svg width="366" height="320" viewBox="0 0 366 320" fill="none" xmlns="http://www.w3.org/2000/svg">
<rect width="366" height="320" fill="#0E0E0E"/>
<path d="M265.228 196.796L266.165 169.412L293.149 143.794L320.3 144.126L290.363 174.294L278.544 183.563L265.228 196.796ZM246.015 208.63L247.107 119.096L270.034 119.375L268.942 208.91L246.015 208.63ZM294.041 209.216L274.316 183.873L288.77 166.43L321.794 209.555L294.041 209.216Z" fill="#D9EE61"/>
<path d="M208.192 208.17L208.99 142.769L231.917 143.048L231.119 208.45L208.192 208.17ZM220.542 135.668C216.359 135.617 212.994 134.41 210.448 132.045C207.903 129.681 206.651 126.769 206.693 123.31C206.735 119.851 208.058 116.971 210.66 114.669C213.263 112.368 216.656 111.243 220.839 111.294C225.022 111.345 228.387 112.512 230.934 114.796C233.482 117 234.735 119.831 234.692 123.29C234.648 126.91 233.324 129.911 230.721 132.293C228.198 134.595 224.805 135.72 220.542 135.668Z" fill="#D9EE61"/>
<path d="M167.58 141.176C172.648 141.238 177.221 142.34 181.298 144.482C185.376 146.543 188.556 149.719 190.837 154.011C193.198 158.304 194.337 163.83 194.255 170.587L193.798 207.993L170.872 207.714L171.282 174.048C171.339 169.382 170.415 165.992 168.51 163.876C166.686 161.682 164.085 160.564 160.706 160.523C158.293 160.493 156.074 161.029 154.049 162.131C152.025 163.152 150.436 164.782 149.283 167.021C148.129 169.26 147.53 172.189 147.486 175.809L147.1 207.424L124.173 207.144L125.266 117.609L148.193 117.889L147.671 160.605L142.428 155.11C144.98 150.394 148.442 146.897 152.814 144.617C157.188 142.256 162.11 141.11 167.58 141.176Z" fill="#6552D0"/>
<path d="M78.2524 208.273C71.5754 208.192 65.3939 207.071 59.7078 204.909C54.1031 202.669 49.2333 199.552 45.0982 195.559C41.0436 191.567 37.8823 186.902 35.6141 181.565C33.347 176.146 32.2527 170.219 32.3312 163.784C32.4097 157.348 33.6479 151.49 36.0456 146.209C38.4442 140.848 41.719 136.222 45.8698 132.33C50.101 128.439 55.045 125.482 60.7017 123.459C66.4398 121.357 72.6473 120.347 79.3243 120.428C87.1275 120.523 94.0693 121.976 100.15 124.786C106.311 127.596 111.411 131.601 115.451 136.799L100.079 150.37C97.3831 147.119 94.3963 144.628 91.1187 142.899C87.9215 141.17 84.3117 140.281 80.2895 140.232C76.8303 140.19 73.6459 140.714 70.7361 141.805C67.8263 142.896 65.3124 144.515 63.1943 146.661C61.1577 148.728 59.5179 151.243 58.2749 154.204C57.1123 157.167 56.509 160.458 56.4648 164.078C56.4206 167.698 56.9435 171.003 58.0334 173.994C59.2037 176.985 60.7812 179.579 62.7659 181.775C64.8319 183.892 67.3061 185.532 70.1884 186.693C73.0706 187.855 76.2414 188.457 79.7005 188.499C83.7228 188.548 87.3531 187.747 90.5915 186.097C93.9104 184.448 96.957 182.032 99.7314 178.847L114.768 192.789C110.603 197.807 105.407 201.685 99.1779 204.425C93.0307 207.086 86.0555 208.369 78.2524 208.273Z" fill="#6552D0"/>
</svg>
