<svg width="365" height="320" viewBox="0 0 365 320" fill="none" xmlns="http://www.w3.org/2000/svg">
<g clip-path="url(#clip0_8253_20151)">
<rect width="365" height="320" fill="#6552D0"/>
<g clip-path="url(#clip1_8253_20151)">
<path d="M124.85 224.429C142.44 257.457 242.068 256.911 254.536 207.747C260.103 185.792 257.154 169.318 244.317 150.656C213.398 105.711 136.178 144.209 124.531 222.446C124.43 223.124 124.528 223.825 124.85 224.429Z" fill="#D9EE61" stroke="#6552D0" stroke-width="3.49126"/>
<path d="M305.088 118.465C296.047 134.42 275.546 150.976 258.833 137.355C246.842 126.98 232.133 102.006 242.313 89.211C242.567 88.8927 242.862 88.6113 243.174 88.3509C247.395 84.8362 262.812 71.5778 284.721 69.6066C290.374 69.098 293.244 75.9754 289.923 80.5767C284.4 88.2291 277.581 98.3843 272.271 107.317C270.401 110.462 271.554 114.344 275.152 115.008C280.904 116.071 289.051 116 296.073 113.309C302.126 110.988 308.283 112.825 305.088 118.465Z" fill="#D9EE61" stroke="#D9EE61" stroke-width="3.49126"/>
<path d="M177.749 87.8695C132.068 93.421 99.2701 135.404 104.929 181.986C110.588 228.568 152.484 261.474 198.164 255.923C243.845 250.372 276.644 208.388 270.986 161.806C265.327 115.225 223.43 82.3183 177.749 87.8695Z" stroke="#D9EE61" stroke-width="38.4023"/>
<path d="M57.1182 -24.6664L83.5954 171.714C85.8782 188.646 108.611 192.555 116.42 177.36L116.741 176.734C118.378 173.549 118.996 169.938 118.51 166.39L87.0604 -63.5176C85.6597 -73.7567 75.7193 -80.5437 65.6729 -78.1201L1.4484 -62.627C-6.88441 -60.6168 -12.0983 -52.3332 -10.3069 -43.9507C-8.40455 -35.0491 0.601844 -29.5881 9.37452 -32.0168L35.1621 -39.1563C45.3601 -41.9796 55.7043 -35.1529 57.1182 -24.6664Z" fill="#D9EE61"/>
</g>
</g>
<defs>
<clipPath id="clip0_8253_20151">
<rect width="365" height="320" fill="white"/>
</clipPath>
<clipPath id="clip1_8253_20151">
<rect width="365" height="320" fill="white"/>
</clipPath>
</defs>
</svg>
