<svg width="119" height="124" viewBox="0 0 119 124" fill="none" xmlns="http://www.w3.org/2000/svg">
<path d="M76.4876 76.0295C81.3787 82.6795 71.6904 102.43 60.7265 100.176C55.8342 99.1708 52.848 97.002 50.3779 92.6608C44.4266 82.2011 59.5006 70.5732 76.1547 75.7971C76.2868 75.8385 76.4056 75.918 76.4876 76.0295Z" fill="#D9EE61"/>
<path d="M49.3411 61.7469C60.8817 57.5638 73.737 63.6061 77.9982 75.3643C82.2594 87.1227 76.2602 99.9994 64.7199 104.183C53.1792 108.366 40.3231 102.324 36.0619 90.5657C31.8007 78.8073 37.8005 65.9302 49.3411 61.7469Z" stroke="#D9EE61" stroke-width="9.16968"/>
<path d="M63.9456 21.1668L82.4369 74.3518C83.5706 77.6124 79.8289 80.3917 77.0346 78.3645L73.9506 76.1271C73.3651 75.7023 72.9244 75.1078 72.6882 74.4241L52.3899 15.6765C51.708 13.7029 52.8806 11.5723 54.9128 11.0924L73.4119 6.72432C75.2726 6.28497 77.1445 7.40808 77.6325 9.25655L77.9484 10.4532C78.4667 12.4163 77.2245 14.4105 75.2339 14.8108L66.5813 16.5512C64.4853 16.9728 63.2435 19.1474 63.9456 21.1668Z" fill="#D9EE61"/>
</svg>
