<svg width="155" height="207" viewBox="0 0 155 207" fill="none" xmlns="http://www.w3.org/2000/svg">
<path d="M77.8018 114.121C101.164 114.121 120.104 133.062 120.104 156.429C120.104 179.795 101.164 198.735 77.8018 198.735C54.44 198.735 35.5001 179.795 35.5 156.429C35.5 133.062 54.4399 114.121 77.8018 114.121Z" stroke="#6552D0" stroke-width="16"/>
<path d="M77.4127 49.1445V83.8913C49.3485 83.8913 6.5 105.415 6.5 165.4H20.6825" stroke="#6552D0" stroke-width="13" stroke-linecap="round" stroke-linejoin="round"/>
<path d="M77.4115 6.5V83.8895C105.476 83.8895 148.324 105.413 148.324 165.398H134.142" stroke="#6552D0" stroke-width="13" stroke-linecap="round" stroke-linejoin="round"/>
<path d="M99.8091 154.26C105.755 167.249 98.7121 209.929 75.6755 200.386C75.6361 200.37 75.5946 200.356 75.5532 200.346C60.682 196.705 35.6669 171.913 41.4357 158.908C41.4547 158.865 41.4737 158.83 41.5001 158.791C44.0502 155.042 56.4199 134.792 80.8039 130.212C81.4463 130.091 81.9576 130.756 81.6959 131.355C78.5837 138.477 72.0831 158.005 69.056 171.547C68.9641 171.959 69.2048 172.366 69.6196 172.44C76.3407 173.65 95.9802 168.817 98.474 154.569C98.6027 153.834 99.4982 153.581 99.8091 154.26Z" fill="#6552D0" stroke="#6552D0" stroke-width="0.402159"/>
</svg>
