<svg width="69" height="74" viewBox="0 0 69 74" fill="none" xmlns="http://www.w3.org/2000/svg">
<path d="M32.7344 51.0466C33.4808 56.2256 46.6407 60.841 50.5936 54.9483C52.3574 52.3189 52.7427 50.0114 51.9287 46.9519C49.9676 39.5804 37.9852 41.029 32.7815 50.7936C32.7402 50.871 32.7219 50.9597 32.7344 51.0466Z" fill="#D9EE61"/>
<path d="M38.6413 32.5258C31.5658 35.7675 28.4424 44.2146 31.7441 51.4215C35.0459 58.6284 43.4826 61.779 50.5581 58.5373C57.6334 55.2955 60.7561 46.8489 57.4544 39.6421C54.1527 32.4353 45.7168 29.2843 38.6413 32.5258Z" stroke="#D9EE61" stroke-width="5.81285"/>
<path d="M14.0128 20.6873L29.3038 52.9371C30.2413 54.9144 33.1676 54.5068 33.529 52.3487L33.9281 49.9658C34.0038 49.5135 33.9386 49.0489 33.7414 48.6349L16.7939 13.0692C16.2245 11.8742 14.7474 11.4329 13.6157 12.1195L3.313 18.3711C2.27687 18.9998 1.93039 20.3395 2.53181 21.3918L2.92088 22.0724C3.55957 23.1899 5.00749 23.5386 6.08493 22.8346L10.7696 19.7735C11.9042 19.0322 13.4322 19.4627 14.0128 20.6873Z" fill="#D9EE61"/>
</svg>
