<svg width="80" height="83" viewBox="0 0 80 83" fill="none" xmlns="http://www.w3.org/2000/svg">
<path d="M37.4506 55.4823C35.2325 60.3825 20.9139 61.1625 18.7038 54.2107C17.7179 51.1094 18 48.7215 19.6815 45.9355C23.7334 39.2225 35.1451 44.0931 37.476 55.2262C37.494 55.3121 37.4868 55.4024 37.4506 55.4823Z" fill="#D9EE61"/>
<path d="M36.9752 35.4476C43.0609 40.7064 43.7207 49.9902 38.3639 56.1894C33.007 62.3885 23.7264 63.0813 17.6407 57.8225C11.555 52.5637 10.8947 43.2807 16.2514 37.0814C21.6082 30.8822 30.8894 30.1887 36.9752 35.4476Z" stroke="#D9EE61" stroke-width="5.81285"/>
<path d="M64.682 30.8392L40.1554 58.4802C38.7031 60.117 36.007 58.9084 36.2627 56.7351L36.5783 54.053C36.6318 53.5976 36.8242 53.1696 37.1292 52.8272L64.1226 22.5244C65.003 21.536 66.5446 21.5247 67.4395 22.5L75.9002 31.7221C76.7195 32.6152 76.678 33.9984 75.8067 34.8408L75.1363 35.4889C74.211 36.3836 72.7232 36.3141 71.8853 35.3372L68.0513 30.8675C67.169 29.8388 65.5815 29.8254 64.682 30.8392Z" fill="#D9EE61"/>
</svg>
