<svg width="132" height="145" viewBox="0 0 132 145" fill="none" xmlns="http://www.w3.org/2000/svg">
<path d="M60.5298 100.173C61.2245 110.73 87.05 122.072 95.9284 110.8C99.8891 105.772 101.021 101.179 99.8523 94.8861C97.0351 79.722 72.6532 80.7963 60.6602 99.6839C60.5677 99.8296 60.5184 100.001 60.5298 100.173Z" fill="#D9EE61"/>
<path d="M75.2581 63.5969C60.4149 69.0702 52.7784 85.7073 58.3541 100.828C63.9299 115.949 80.5396 123.645 95.383 118.173C110.226 112.699 117.864 96.0621 112.288 80.9412C106.712 65.8205 90.1015 58.1238 75.2581 63.5969Z" stroke="#D9EE61" stroke-width="11.4339"/>
<path d="M27.4199 35.9466L53.4612 103.811C55.0032 107.829 60.8037 107.469 61.8362 103.29L63.1104 98.1333C63.3268 97.2576 63.2686 96.3365 62.9438 95.495L34.2017 21.023C33.2642 18.594 30.4333 17.5067 28.1109 18.6837L6.15288 29.812C4.02647 30.8897 3.14594 33.4654 4.16762 35.6193L4.95376 37.2766C6.03877 39.564 8.82621 40.4653 11.045 39.2461L21.1962 33.668C23.5326 32.3841 26.4648 33.4577 27.4199 35.9466Z" fill="#D9EE61"/>
</svg>
