<svg width="80" height="83" viewBox="0 0 80 83" fill="none" xmlns="http://www.w3.org/2000/svg">
<path d="M42.4645 55.4872C44.6827 60.3874 59.0012 61.1675 61.2113 54.2157C62.1972 51.1144 61.9151 48.7264 60.2335 45.9405C56.1817 39.2274 44.77 44.098 42.4392 55.2311C42.4212 55.3169 42.4284 55.4072 42.4645 55.4872Z" fill="#D9EE61"/>
<path d="M42.9399 35.4507C36.8543 40.7095 36.1944 49.9933 41.5512 56.1926C46.9081 62.3919 56.1893 63.0852 62.2749 57.8265C68.3606 52.5677 69.0204 43.2838 63.6636 37.0845C58.3068 30.8852 49.0256 30.1919 42.9399 35.4507Z" stroke="#D9EE61" stroke-width="5.81285"/>
<path d="M15.2272 30.8442L39.7539 58.4854C41.2063 60.1222 43.9023 58.9136 43.6466 56.7403L43.3311 54.0582C43.2775 53.6028 43.0851 53.1749 42.7801 52.8324L15.7866 22.5293C14.9062 21.5409 13.3646 21.5296 12.4697 22.505L4.00912 31.7271C3.1898 32.6201 3.23126 34.0034 4.10258 34.8457L4.77301 35.4939C5.69834 36.3885 7.18606 36.3191 8.02402 35.3422L11.8579 30.8725C12.7403 29.8438 14.3277 29.8304 15.2272 30.8442Z" fill="#D9EE61"/>
</svg>
