<svg width="123" height="136" viewBox="0 0 123 136" fill="none" xmlns="http://www.w3.org/2000/svg">
<path d="M54.7389 95.0012C54.8636 105.294 79.3388 117.679 88.5608 107.203C92.6757 102.528 94.0199 98.1271 93.2188 91.9507C91.2888 77.0697 67.5516 76.8139 54.8958 94.5198C54.7954 94.6602 54.7369 94.8285 54.7389 95.0012Z" fill="#D9EE61"/>
<path d="M71.0363 60.3846C56.4122 64.8846 48.1526 80.5545 52.742 95.465C57.3316 110.375 72.9733 118.689 87.5973 114.189C102.221 109.689 110.48 94.0205 105.891 79.1103C101.302 64.1999 85.6603 55.8847 71.0363 60.3846Z" stroke="#D9EE61" stroke-width="11.4339"/>
<path d="M26.0304 30.9637L47.5605 97.7925C48.8804 101.89 54.6921 101.847 55.9514 97.7303L57.3413 93.1872C57.6052 92.3247 57.5975 91.4019 57.3192 90.544L33.4108 16.821C32.6076 14.3443 29.8404 13.1039 27.4571 14.1522L5.76191 23.6952C3.57981 24.655 2.55975 27.1787 3.46202 29.3852L4.0461 30.8136C5.00434 33.157 7.73835 34.2093 10.0205 33.1131L19.9407 28.3482C22.3438 27.1939 25.2129 28.4262 26.0304 30.9637Z" fill="#D9EE61"/>
</svg>
