<svg width="151" height="158" viewBox="0 0 151 158" fill="none" xmlns="http://www.w3.org/2000/svg">
<path d="M73.8338 107.462C70.7675 117.589 43.0454 122.791 36.9489 109.802C34.2292 104.008 34.1658 99.2784 36.729 93.413C42.9053 79.2798 66.411 85.8444 73.8174 106.956C73.8746 107.119 73.8838 107.297 73.8338 107.462Z" fill="#D9EE61"/>
<path d="M67.7687 68.5014C80.9876 77.192 84.6606 95.1265 75.8069 108.593C66.9532 122.06 49.032 125.798 35.813 117.108C22.5941 108.417 18.9212 90.4827 27.7749 77.0158C36.6286 63.5488 54.5498 59.8109 67.7687 68.5014Z" stroke="#D9EE61" stroke-width="11.4339"/>
<path d="M120.621 52.4028L79.895 112.613C77.4834 116.178 71.915 114.514 71.8552 110.21L71.7813 104.899C71.7688 103.997 72.0339 103.113 72.5407 102.367L117.393 36.3313C118.856 34.1775 121.86 33.7592 123.855 35.4314L142.724 51.2406C144.551 52.7716 144.826 55.4797 143.344 57.3465L142.203 58.783C140.628 60.7655 137.709 61.0125 135.824 59.3227L127.199 51.592C125.214 49.8126 122.115 50.1946 120.621 52.4028Z" fill="#D9EE61"/>
</svg>
