<svg width="145" height="193" viewBox="0 0 145 193" fill="none" xmlns="http://www.w3.org/2000/svg">
<path d="M125.448 74.6046C132.336 79.7546 137.504 85.8353 140.954 92.8466C144.485 99.7486 145.67 107.282 144.508 115.446C143.455 123.693 139.495 132.407 132.628 141.59L94.6163 192.423L63.4604 169.126L97.6712 123.376C102.413 117.035 104.534 111.463 104.036 106.659C103.729 101.827 101.279 97.6944 96.6879 94.261C93.4083 91.8086 89.8298 90.3258 85.9524 89.8126C82.1567 89.1901 78.3492 89.8371 74.5299 91.7536C70.7105 93.6701 66.9615 97.088 63.2829 102.007L31.1566 144.97L0.000742706 121.672L90.9844 0L122.14 23.2977L78.733 81.3461L77.0358 68.5718C85.2477 64.6561 93.4906 63.3203 101.764 64.5643C110.12 65.6991 118.015 69.0458 125.448 74.6046Z" fill="#6552D0"/>
</svg>
