<svg width="129" height="147" viewBox="0 0 129 147" fill="none" xmlns="http://www.w3.org/2000/svg">
<path d="M0.000288913 122.184L69.6319 35.7706L99.9246 60.1803L30.293 146.594L0.000288913 122.184ZM92.4865 38.4093C86.9595 33.9557 83.7372 28.8173 82.8197 22.9941C81.9022 17.171 83.2849 11.9742 86.9677 7.40372C90.6506 2.83324 95.4345 0.377159 101.32 0.0354786C107.205 -0.306202 112.911 1.74979 118.438 6.20348C123.965 10.6572 127.23 15.7424 128.233 21.4593C129.322 27.0699 128.025 32.1604 124.342 36.7308C120.488 41.5139 115.575 44.1294 109.605 44.5774C103.826 45.0047 98.1199 42.9487 92.4865 38.4093Z" fill="#6552D0"/>
</svg>
