<svg width="729" height="373" viewBox="0 0 729 373" fill="none" xmlns="http://www.w3.org/2000/svg">
<g clip-path="url(#clip0_8192_19424)">
<path d="M926.397 382.011L902.898 312.51L851.08 328.536L851.08 236.51L785.899 350.011L785.899 202.835L703.398 328.536L727.196 146.933L634.898 295.511L619.195 100.375L555.898 262.511L507.009 62.8945L451.506 229.027L423.766 51.213L373.111 202.836L342.691 44.2878L292.52 194.46L265.964 35.5895L214.097 190.84L187.923 35.323L149.749 208.052L89.4108 69.3461L87.123 211.226L22.397 100.375L22.397 248.085" stroke="#D9EE61" stroke-width="57.3559" stroke-linecap="round" stroke-linejoin="round"/>
<path d="M921.398 487.512L928.009 380.465L858.841 422.151L860.25 338.134L793.266 423.775L793.66 296.451L710.023 403.179L722.475 251.932L619.195 422.151L619.195 221.375L563.398 369.086L507.009 183.895L447.898 338.134L423.766 172.214L373.111 323.837L342.691 165.288L292.52 315.461L265.964 156.59L214.097 311.841L187.923 156.324L149.749 329.052L101.898 183.895L87.1228 332.226L27.8984 216.512L22.3968 369.086" stroke="#6552D0" stroke-width="57.3559" stroke-linecap="round" stroke-linejoin="round"/>
<path d="M363.604 311.012L498 265.5L636.104 322.012L808.604 311.012V429.012H363.604V311.012Z" fill="#6552D0"/>
</g>
<defs>
<clipPath id="clip0_8192_19424">
<rect width="729" height="373" fill="white"/>
</clipPath>
</defs>
</svg>
