<svg width="452" height="374" viewBox="0 0 452 374" fill="none" xmlns="http://www.w3.org/2000/svg">
<path d="M18.2715 132.917C14.2859 139.973 15.2665 149.525 20.6328 155.926C25.9992 162.327 34.3227 163.872 40.6846 159.65L68.957 140.888L49.1572 175.942C45.1734 182.996 46.1506 192.542 51.5117 198.943C56.8729 205.344 65.1913 206.898 71.5547 202.686L81.5732 196.053L65.4043 219.229C61.0867 225.418 60.9892 234.344 65.1641 241.201C69.3389 248.058 76.8019 251.23 83.5352 249.009L92.4648 246.062L75.0967 261.684C69.5234 266.696 67.7944 275.552 70.877 283.296C73.7004 290.389 79.9183 294.936 86.4668 294.917L75.5088 301.3C69.6937 304.687 66.5079 311.942 67.4941 319.551C68.4555 326.966 73.1868 333.223 79.4648 335.463C72.9539 336.718 67.9357 342.525 67.0156 350.156C66.0124 358.48 70.1423 366.836 77.0303 370.422L82.3867 373.21H6.17285C2.76386 373.21 0 370.446 0 367.037V119.915C2.19299 119.738 4.35357 119.043 6.33789 117.797L38.0654 97.874L18.2715 132.917ZM126.458 2.94531C123.119 10.0224 124.018 18.5664 128.683 24.1074C133.347 29.6482 140.717 30.9257 146.937 27.2705L193.335 0H197.291L168.305 72.3887C165.253 80.0085 166.926 88.8082 172.384 93.8496C177.842 98.8907 185.727 98.9192 191.613 93.918L228.521 62.5586L206.083 112.678C202.677 120.285 204.116 129.355 209.567 134.642C215.019 139.928 223.073 140.063 229.069 134.968L261.862 107.104L243.979 150.579C240.846 158.198 242.467 167.062 247.924 172.16C253.381 177.258 261.305 177.31 267.217 172.287L296.696 147.239L279.449 186.779C276.129 194.392 277.624 203.398 283.078 208.625C288.532 213.852 296.546 213.961 302.517 208.888L334.873 181.396L318.559 218.896C315.104 226.838 316.9 236.232 322.845 241.312C328.789 246.39 337.217 245.732 342.954 239.74L390.04 190.562L379.477 243.119C377.754 251.69 381.477 260.193 388.364 263.414C395.252 266.635 403.38 263.677 407.767 256.352L435.763 209.604L433.342 250.211C432.814 259.058 437.855 266.775 445.3 268.517C447.493 269.03 449.709 268.98 451.823 268.445V367.037C451.823 370.446 449.06 373.21 445.651 373.21H158.694L149.165 368.249L179.642 366.414C187.5 365.94 193.585 359.006 194.021 350.025C194.458 341.045 189.119 332.653 181.403 330.192L127.961 313.149L182.997 281.097C189.832 277.116 192.89 267.92 190.244 259.307C187.598 250.693 180.015 245.157 172.273 246.187L141.448 250.287L179.543 216.028C185.489 210.681 187.011 201.024 183.165 193.055C179.319 185.085 171.196 181.066 163.84 183.492L123.516 196.793L162.213 141.326C166.959 134.523 166.556 124.528 161.257 117.606C155.958 110.685 147.288 108.828 140.683 113.201L114.102 130.798L133.993 95.5811C137.979 88.5246 136.999 78.9731 131.633 72.5723C126.266 66.1716 117.943 64.6257 111.581 68.8477L83.3076 87.6113L101.23 55.8799C105.18 48.8871 104.257 39.4338 98.999 33.0264C93.7409 26.6192 85.5214 24.9318 79.1279 28.9463L47.4014 48.8682L67.7305 12.876C69.908 9.02053 70.5997 4.42229 69.9082 0H127.848L126.458 2.94531ZM445.651 0C449.06 0.000202062 451.823 2.76399 451.823 6.17285V127.839C448.157 129.015 444.815 131.671 442.516 135.511L428.585 158.771L431.915 142.208C433.476 134.442 430.57 126.628 424.714 122.848C418.858 119.068 411.382 120.179 406.19 125.602L383.646 149.146L391.805 130.395C395.117 122.782 393.614 113.783 388.16 108.562C382.706 103.34 374.697 103.234 368.729 108.305L336.496 135.692L353.743 96.1533C357.064 88.5409 355.568 79.5351 350.114 74.3076C344.66 69.0803 336.647 68.9722 330.677 74.0449L298.669 101.24L316.552 57.7637C319.686 50.1447 318.067 41.281 312.609 36.1826C307.152 31.0844 299.228 31.0323 293.315 36.0557L264.278 60.7275L286.717 10.6084C288.239 7.20823 288.79 3.5159 288.451 0H445.651ZM0 62.9512V61.0059L1.78418 59.793L0 62.9512ZM222.016 23.7627L231.531 0H249.983L222.016 23.7627ZM8.16504 11.4111L14.6104 0H24.9414L8.16504 11.4111Z" fill="#D9EE61"/>
</svg>
