<svg width="1004" height="1213" viewBox="0 0 1004 1213" fill="none" xmlns="http://www.w3.org/2000/svg">
<path d="M31.1402 138.584L128.241 35.5977L138.042 148.855L216.955 72.1762L183.383 222.34L304.217 108.049L262.493 295.362L419.996 166.555L355.049 353.79L530.894 242.055L452.922 436.253L649.242 316.034L530.894 525.563L719.872 397.028L611.86 588.258L784.428 479.895L677.449 669.295L847.561 556.4L736.965 752.205L903.613 641.889L766.601 838.281L941.684 780.526L780.599 925.399L953.077 902.452L776.657 1005.2L958.584 1063.22L775.79 1074.23L972.715 1176.75L764.171 1148.09" stroke="#6552D0" stroke-width="66.8842" stroke-linecap="round" stroke-linejoin="round"/>
</svg>
