<svg width="1072" height="1127" viewBox="0 0 1072 1127" fill="none" xmlns="http://www.w3.org/2000/svg">
<path d="M114.148 35.1682L30.4903 153.226L127.554 159.771L65.5541 255.411L192.225 209.619L99.953 355.929L257.968 298.987L116.453 466.601L311.842 404.718L210.817 618.856L386.455 515.626L292.402 750.494L466.046 602.955L364.579 829.597L523.058 694.943L438.09 901.513L595.052 768.148L506.11 972.041L668.38 834.166L581.489 1033.9L743.113 865.095L701.437 1072.41L818.055 877.686L805.966 1080.44L885.977 869.61L943.382 1079.9L944.842 865.597L1040.86 1091.5L1007.36 848.798" stroke="#6552D0" stroke-width="65.8225" stroke-linecap="round" stroke-linejoin="round"/>
</svg>
