<svg width="729" height="373" viewBox="0 0 729 373" fill="none" xmlns="http://www.w3.org/2000/svg">
<g clip-path="url(#clip0_8192_19424)">
<path d="M926.397 382.007L902.898 312.506L851.08 328.532L851.08 236.506L785.899 350.007L785.899 202.831L703.398 328.532L727.196 146.929L634.898 295.507L619.195 100.371L555.898 262.507L507.009 62.8906L451.506 229.023L423.766 51.2091L373.111 202.832L342.691 44.2838L292.52 194.456L265.964 35.5856L214.097 190.836L187.923 35.3191L149.749 208.048L89.4108 69.3422L87.123 211.222L22.397 100.371L22.397 248.081" stroke="#D9EE61" stroke-width="57.3559" stroke-linecap="round" stroke-linejoin="round"/>
<path d="M921.398 487.508L928.009 380.461L858.841 422.147L860.25 338.13L793.266 423.771L793.66 296.447L710.023 403.175L722.475 251.928L619.195 422.147L619.195 221.371L563.398 369.082L507.009 183.891L447.898 338.13L423.766 172.21L373.111 323.833L342.691 165.284L292.52 315.457L265.964 156.586L214.097 311.837L187.923 156.32L149.749 329.048L101.898 183.891L87.1228 332.222L27.8984 216.508L22.3968 369.082" stroke="#6552D0" stroke-width="57.3559" stroke-linecap="round" stroke-linejoin="round"/>
<path d="M363.604 311.008L426.604 285.508L636.104 322.008L808.604 311.008V429.008H363.604V311.008Z" fill="#6552D0"/>
</g>
<defs>
<clipPath id="clip0_8192_19424">
<rect width="729" height="373" fill="white"/>
</clipPath>
</defs>
</svg>
