<svg width="365" height="320" viewBox="0 0 365 320" fill="none" xmlns="http://www.w3.org/2000/svg">
<g clip-path="url(#clip0_8253_20185)">
<rect width="365" height="320" fill="#D9EE61"/>
<g clip-path="url(#clip1_8253_20185)">
<path d="M124.85 224.429C142.44 257.457 242.068 256.911 254.536 207.747C260.103 185.792 257.154 169.318 244.317 150.656C213.398 105.711 136.178 144.209 124.531 222.446C124.43 223.124 124.528 223.825 124.85 224.429Z" fill="#6552D0" stroke="#D9EE61" stroke-width="3.49126"/>
<path d="M305.088 118.465C296.047 134.42 275.546 150.976 258.833 137.355C246.842 126.98 232.133 102.006 242.313 89.211C242.567 88.8927 242.862 88.6113 243.174 88.3509C247.395 84.8362 262.812 71.5778 284.721 69.6066C290.374 69.098 293.244 75.9754 289.923 80.5767C284.4 88.2291 277.581 98.3843 272.271 107.317C270.401 110.462 271.554 114.344 275.152 115.008C280.904 116.071 289.051 116 296.073 113.309C302.126 110.988 308.283 112.825 305.088 118.465Z" fill="#6552D0" stroke="#6552D0" stroke-width="3.49126"/>
<path d="M177.751 87.8695C132.07 93.421 99.2721 135.404 104.931 181.986C110.59 228.568 152.485 261.474 198.166 255.923C243.847 250.372 276.646 208.388 270.988 161.806C265.329 115.225 223.432 82.3183 177.751 87.8695Z" stroke="#6552D0" stroke-width="38.4023"/>
<path d="M57.1201 -24.6683L83.5974 171.712C85.8802 188.644 108.613 192.553 116.422 177.358L116.743 176.732C118.38 173.547 118.998 169.936 118.512 166.388L87.0623 -63.5195C85.6617 -73.7587 75.7212 -80.5456 65.6749 -78.1221L1.45035 -62.6289C-6.88246 -60.6188 -12.0964 -52.3352 -10.305 -43.9527C-8.4026 -35.0511 0.603797 -29.59 9.37647 -32.0188L35.1641 -39.1582C45.362 -41.9816 55.7062 -35.1549 57.1201 -24.6683Z" fill="#6552D0"/>
</g>
</g>
<defs>
<clipPath id="clip0_8253_20185">
<rect width="365" height="320" fill="white"/>
</clipPath>
<clipPath id="clip1_8253_20185">
<rect width="365" height="320" fill="white"/>
</clipPath>
</defs>
</svg>
