<svg width="1958" height="485" viewBox="0 0 1958 485" fill="none" xmlns="http://www.w3.org/2000/svg">
<g clip-path="url(#clip0_8133_18625)">
<rect y="0.101562" width="472.926" height="472.926" rx="40.2461" fill="#D9EE61"/>
<path d="M154.319 352.042C181.563 403.203 335.871 402.357 355.18 326.199C363.804 292.19 359.236 266.67 339.353 237.763C291.466 168.14 171.864 227.775 153.826 348.969C153.669 350.019 153.82 351.105 154.319 352.042Z" fill="#6552D0" stroke="#D9EE61" stroke-width="5.40778"/>
<path d="M433.494 187.919C419.492 212.634 387.739 238.281 361.853 217.18C343.281 201.11 320.5 162.424 336.267 142.603C336.659 142.11 337.117 141.674 337.601 141.27C344.137 135.826 368.015 115.288 401.95 112.234C410.704 111.447 415.15 122.1 410.007 129.228C401.452 141.082 390.89 156.813 382.666 170.65C379.77 175.522 381.556 181.535 387.129 182.565C396.038 184.21 408.657 184.101 419.532 179.932C428.908 176.337 438.444 179.183 433.494 187.919Z" fill="#6552D0" stroke="#6552D0" stroke-width="5.40778"/>
<path d="M236.23 140.484C165.489 149.079 114.69 214.107 123.459 286.273C132.228 358.44 197.121 409.412 267.862 400.818C338.603 392.223 389.402 327.194 380.633 255.028C371.864 182.861 306.97 131.889 236.23 140.484Z" stroke="#6552D0" stroke-width="59.482"/>
<path d="M49.3954 -33.8365L90.4139 270.352C93.9505 296.579 129.165 302.634 141.258 279.095L141.748 278.141C144.282 273.209 145.238 267.616 144.486 262.122L95.7622 -94.0155C93.5924 -109.875 78.1947 -120.388 62.6334 -116.634L-36.8161 -92.6428C-49.7232 -89.529 -57.799 -76.6983 -55.0242 -63.7141C-52.0773 -49.9247 -38.1252 -41.4649 -24.5358 -45.2274L15.3858 -56.2806C31.1817 -60.6541 47.2051 -50.0798 49.3954 -33.8365Z" fill="#6552D0"/>
</g>
<path d="M1679.45 417.23L1682.42 282.699L1813.39 155.279H1946.74L1801.54 305.219L1744.05 351.446L1679.45 417.23ZM1585.82 476.494V36.75H1698.42V476.494H1585.82ZM1821.69 476.494L1723.31 353.224L1793.24 266.697L1958 476.494H1821.69Z" fill="#D9EE61"/>
<path d="M1400.04 476.489V155.274H1512.65V476.489H1400.04ZM1456.34 119.715C1435.8 119.715 1419.21 113.986 1406.56 102.528C1393.92 91.0702 1387.6 76.8466 1387.6 59.8574C1387.6 42.8682 1393.92 28.6446 1406.56 17.1868C1419.21 5.72892 1435.8 0 1456.34 0C1476.89 0 1493.48 5.53138 1506.13 16.5941C1518.77 27.2618 1525.09 41.0902 1525.09 58.0795C1525.09 75.8589 1518.77 90.6751 1506.13 102.528C1493.88 113.986 1477.28 119.715 1456.34 119.715Z" fill="#D9EE61"/>
<path d="M1196.61 149.946C1221.5 149.946 1244.02 155.082 1264.17 165.354C1284.32 175.232 1300.12 190.641 1311.58 211.581C1323.43 232.521 1329.36 259.585 1329.36 292.774V476.494H1216.76V311.146C1216.76 288.23 1212.02 271.636 1202.53 261.363C1193.45 250.696 1180.61 245.362 1164.01 245.362C1152.16 245.362 1141.29 248.128 1131.42 253.659C1121.54 258.795 1113.83 266.895 1108.3 277.957C1102.77 289.02 1100.01 303.441 1100.01 321.221V476.494H987.402V36.75H1100.01V246.547L1073.93 219.878C1086.18 196.567 1102.97 179.183 1124.3 167.725C1145.64 155.872 1169.74 149.946 1196.61 149.946Z" fill="#D9EE61"/>
<path d="M761.958 484.772C729.165 484.772 698.743 479.635 670.691 469.363C643.034 458.695 618.933 443.681 598.388 424.321C578.238 404.962 562.434 382.244 550.976 356.167C539.518 329.695 533.789 300.656 533.789 269.048C533.789 237.44 539.518 208.598 550.976 182.521C562.434 156.05 578.238 133.134 598.388 113.774C618.933 94.4144 643.034 79.5983 670.691 69.3257C698.743 58.658 729.165 53.3242 761.958 53.3242C800.283 53.3242 834.459 60.0409 864.486 73.4743C894.909 86.9076 920.195 106.267 940.345 131.554L865.672 199.115C852.238 183.312 837.422 171.261 821.223 162.964C805.419 154.667 787.64 150.518 767.885 150.518C750.896 150.518 735.289 153.284 721.066 158.815C706.842 164.347 694.594 172.446 684.322 183.114C674.444 193.387 666.542 205.832 660.616 220.451C655.084 235.069 652.319 251.268 652.319 269.048C652.319 286.827 655.084 303.026 660.616 317.645C666.542 332.264 674.444 344.907 684.322 355.574C694.594 365.847 706.842 373.749 721.066 379.28C735.289 384.812 750.896 387.577 767.885 387.577C787.64 387.577 805.419 383.429 821.223 375.132C837.422 366.835 852.238 354.784 865.672 338.98L940.345 406.542C920.195 431.433 894.909 450.793 864.486 464.621C834.459 478.055 800.283 484.772 761.958 484.772Z" fill="#D9EE61"/>
<defs>
<clipPath id="clip0_8133_18625">
<rect y="0.101562" width="472.926" height="472.926" rx="40.2461" fill="white"/>
</clipPath>
</defs>
</svg>
