<svg width="1443" height="651" viewBox="0 0 1443 651" fill="none" xmlns="http://www.w3.org/2000/svg">
<rect x="35.6786" y="35.6786" width="1371.64" height="578.786" fill="#6552D0" stroke="#6552D0" stroke-width="71.3571"/>
<path d="M570.798 304.231C534.489 320.994 518.585 364.451 535.659 401.437C552.733 438.423 596.123 454.504 632.431 437.741C668.74 420.979 684.645 377.523 667.571 340.537C650.497 303.551 607.107 287.469 570.798 304.231Z" fill="#D9EE61" stroke="#D9EE61" stroke-width="27.1571"/>
<path d="M473.171 238.267L530.912 397.099C534.405 406.708 548.196 406.095 550.823 396.214L553.851 384.824C554.401 382.754 554.301 380.565 553.566 378.553L489.616 203.694C487.492 197.886 480.815 195.185 475.25 197.883L423.861 222.796C418.766 225.266 416.567 231.346 418.903 236.504L420.523 240.083C423.003 245.561 429.585 247.818 434.906 245.016L458.487 232.594C464.09 229.643 471.008 232.316 473.171 238.267Z" fill="#D9EE61" stroke="#D9EE61" stroke-width="22.9791"/>
<path d="M263.034 304.252C226.724 321.016 210.819 364.473 227.892 401.457C244.965 438.441 288.355 454.523 324.665 437.759C360.975 420.996 376.881 377.539 359.808 340.555C342.735 303.57 299.344 287.489 263.034 304.252Z" fill="#D9EE61" stroke="#D9EE61" stroke-width="27.1571"/>
<path d="M165.362 238.263L223.101 397.09C226.594 406.699 240.385 406.086 243.012 396.205L246.04 384.815C246.591 382.745 246.491 380.555 245.756 378.543L181.808 203.69C179.684 197.882 173.006 195.181 167.442 197.879L116.051 222.793C110.956 225.263 108.756 231.342 111.092 236.5L112.712 240.079C115.193 245.557 121.774 247.814 127.095 245.012L150.678 232.59C156.28 229.639 163.198 232.312 165.362 238.263Z" fill="#D9EE61" stroke="#D9EE61" stroke-width="22.9791"/>
<path d="M1185.2 304.243C1148.9 321.006 1132.99 364.462 1150.07 401.449C1167.14 438.435 1210.53 454.517 1246.84 437.754C1283.15 420.991 1299.05 377.535 1281.98 340.548C1264.9 303.562 1221.51 287.48 1185.2 304.243Z" fill="#D9EE61" stroke="#D9EE61" stroke-width="27.1571"/>
<path d="M1087.55 238.259L1145.29 397.092C1148.78 406.701 1162.57 406.087 1165.2 396.206L1168.23 384.817C1168.78 382.746 1168.68 380.557 1167.94 378.545L1103.99 203.686C1101.87 197.878 1095.19 195.177 1089.63 197.875L1038.24 222.788C1033.14 225.258 1030.94 231.338 1033.28 236.496L1034.9 240.075C1037.38 245.553 1043.96 247.81 1049.28 245.008L1072.86 232.587C1078.46 229.636 1085.38 232.308 1087.55 238.259Z" fill="#D9EE61" stroke="#D9EE61" stroke-width="22.9791"/>
<path d="M878.076 304.681C841.772 321.444 825.868 364.902 842.942 401.892C860.017 438.882 903.405 454.964 939.709 438.202C976.014 421.44 991.918 377.982 974.844 340.992C957.769 304.002 914.38 287.919 878.076 304.681Z" fill="#D9EE61" stroke="#D9EE61" stroke-width="27.1571"/>
<path d="M780.376 238.702L838.119 397.542C841.612 407.151 855.404 406.538 858.03 396.656L861.057 385.268C861.607 383.198 861.507 381.009 860.772 378.997L796.819 204.128C794.695 198.32 788.018 195.619 782.453 198.317L731.068 223.229C725.974 225.699 723.775 231.779 726.11 236.936L727.731 240.517C730.211 245.995 736.793 248.252 742.114 245.45L765.692 233.029C771.295 230.078 778.213 232.751 780.376 238.702Z" fill="#D9EE61" stroke="#D9EE61" stroke-width="22.9791"/>
</svg>
