<svg width="1443" height="651" viewBox="0 0 1443 651" fill="none" xmlns="http://www.w3.org/2000/svg">
<rect x="35.6786" y="35.6786" width="1371.64" height="578.786" fill="#D9EE61" stroke="#6552D0" stroke-width="71.3571"/>
<path d="M869.745 304.231C906.053 320.994 921.958 364.451 904.884 401.437C887.81 438.423 844.42 454.504 808.112 437.741C771.803 420.979 755.898 377.523 772.972 340.537C790.046 303.551 833.436 287.469 869.745 304.231Z" fill="#6552D0" stroke="#6552D0" stroke-width="27.1571"/>
<path d="M967.372 238.267L909.631 397.099C906.138 406.708 892.347 406.095 889.72 396.214L886.692 384.824C886.142 382.754 886.242 380.565 886.977 378.553L950.927 203.694C953.051 197.886 959.728 195.185 965.293 197.883L1016.68 222.796C1021.78 225.266 1023.98 231.346 1021.64 236.504L1020.02 240.083C1017.54 245.561 1010.96 247.818 1005.64 245.016L982.056 232.594C976.453 229.643 969.535 232.316 967.372 238.267Z" fill="#6552D0" stroke="#6552D0" stroke-width="22.9791"/>
<path d="M1177.52 304.248C1213.83 321.012 1229.74 364.469 1212.66 401.454C1195.59 438.438 1152.2 454.519 1115.89 437.755C1079.58 420.992 1063.67 377.535 1080.75 340.551C1097.82 303.566 1141.21 287.485 1177.52 304.248Z" fill="#6552D0" stroke="#6552D0" stroke-width="27.1571"/>
<path d="M1275.19 238.259L1217.45 397.086C1213.96 406.695 1200.17 406.082 1197.54 396.201L1194.51 384.811C1193.96 382.741 1194.06 380.551 1194.8 378.54L1258.74 203.686C1260.87 197.878 1267.54 195.177 1273.11 197.875L1324.5 222.789C1329.6 225.259 1331.79 231.338 1329.46 236.496L1327.84 240.075C1325.36 245.553 1318.78 247.81 1313.46 245.008L1289.87 232.586C1284.27 229.635 1277.35 232.308 1275.19 238.259Z" fill="#6552D0" stroke="#6552D0" stroke-width="22.9791"/>
<path d="M255.339 304.239C291.647 321.002 307.552 364.458 290.478 401.445C273.403 438.431 230.014 454.513 193.705 437.75C157.397 420.987 141.492 377.531 158.566 340.544C175.64 303.558 219.03 287.476 255.339 304.239Z" fill="#6552D0" stroke="#6552D0" stroke-width="27.1571"/>
<path d="M352.996 238.259L295.256 397.092C291.763 406.701 277.972 406.087 275.345 396.206L272.317 384.817C271.767 382.746 271.866 380.557 272.602 378.545L336.552 203.686C338.676 197.878 345.353 195.177 350.918 197.875L402.307 222.788C407.401 225.258 409.601 231.338 407.265 236.496L405.645 240.075C403.164 245.553 396.582 247.81 391.262 245.008L367.681 232.587C362.078 229.636 355.16 232.308 352.996 238.259Z" fill="#6552D0" stroke="#6552D0" stroke-width="22.9791"/>
<path d="M562.463 304.685C598.768 321.447 614.671 364.906 597.597 401.896C580.522 438.886 537.134 454.968 500.83 438.206C464.525 421.444 448.621 377.986 465.695 340.996C482.77 304.005 526.159 287.923 562.463 304.685Z" fill="#6552D0" stroke="#6552D0" stroke-width="27.1571"/>
<path d="M660.166 238.702L602.424 397.542C598.931 407.151 585.139 406.538 582.513 396.656L579.486 385.268C578.936 383.198 579.035 381.009 579.771 378.997L643.724 204.128C645.848 198.32 652.525 195.619 658.09 198.317L709.474 223.229C714.569 225.699 716.768 231.779 714.433 236.936L712.812 240.517C710.332 245.995 703.75 248.252 698.429 245.45L674.851 233.029C669.248 230.078 662.33 232.751 660.166 238.702Z" fill="#6552D0" stroke="#6552D0" stroke-width="22.9791"/>
</svg>
