<svg width="1443" height="651" viewBox="0 0 1443 651" fill="none" xmlns="http://www.w3.org/2000/svg">
<rect x="35.6786" y="35.6786" width="1371.64" height="578.786" fill="#6552D0" stroke="#6552D0" stroke-width="71.3571"/>
<path d="M570.801 304.227C534.492 320.99 518.588 364.447 535.662 401.433C552.736 438.419 596.126 454.5 632.434 437.738C668.743 420.975 684.648 377.519 667.574 340.533C650.5 303.547 607.11 287.465 570.801 304.227Z" fill="#D9EE61" stroke="#D9EE61" stroke-width="27.1571"/>
<path d="M473.17 238.263L530.911 397.095C534.404 406.704 548.195 406.091 550.822 396.21L553.85 384.82C554.4 382.75 554.3 380.561 553.565 378.549L489.615 203.69C487.491 197.882 480.814 195.181 475.249 197.879L423.86 222.792C418.765 225.262 416.566 231.342 418.902 236.5L420.522 240.079C423.003 245.557 429.584 247.814 434.905 245.012L458.486 232.591C464.089 229.64 471.007 232.312 473.17 238.263Z" fill="#D9EE61" stroke="#D9EE61" stroke-width="22.9791"/>
<path d="M263.035 304.252C226.725 321.016 210.82 364.473 227.893 401.457C244.966 438.441 288.356 454.523 324.666 437.759C360.976 420.996 376.882 377.539 359.809 340.555C342.736 303.57 299.345 287.489 263.035 304.252Z" fill="#D9EE61" stroke="#D9EE61" stroke-width="27.1571"/>
<path d="M165.359 238.263L223.098 397.09C226.591 406.699 240.382 406.086 243.009 396.205L246.037 384.815C246.588 382.745 246.488 380.555 245.753 378.543L181.805 203.69C179.681 197.882 173.004 195.181 167.439 197.879L116.048 222.793C110.953 225.263 108.753 231.342 111.089 236.5L112.709 240.079C115.19 245.557 121.771 247.814 127.092 245.012L150.675 232.59C156.277 229.639 163.196 232.312 165.359 238.263Z" fill="#D9EE61" stroke="#D9EE61" stroke-width="22.9791"/>
<path d="M1185.21 304.239C1148.9 321.002 1132.99 364.458 1150.07 401.445C1167.14 438.431 1210.53 454.513 1246.84 437.75C1283.15 420.987 1299.05 377.531 1281.98 340.544C1264.91 303.558 1221.52 287.476 1185.21 304.239Z" fill="#D9EE61" stroke="#D9EE61" stroke-width="27.1571"/>
<path d="M1087.55 238.255L1145.29 397.088C1148.78 406.697 1162.57 406.083 1165.2 396.202L1168.23 384.813C1168.78 382.743 1168.68 380.553 1167.94 378.542L1103.99 203.682C1101.87 197.874 1095.19 195.173 1089.63 197.871L1038.24 222.785C1033.14 225.254 1030.95 231.334 1033.28 236.492L1034.9 240.071C1037.38 245.549 1043.96 247.806 1049.28 245.004L1072.87 232.583C1078.47 229.632 1085.39 232.304 1087.55 238.255Z" fill="#D9EE61" stroke="#D9EE61" stroke-width="22.9791"/>
<path d="M878.075 304.689C841.771 321.451 825.867 364.91 842.941 401.9C860.016 438.89 903.404 454.972 939.708 438.21C976.013 421.448 991.917 377.99 974.843 341C957.768 304.009 914.379 287.927 878.075 304.689Z" fill="#D9EE61" stroke="#D9EE61" stroke-width="27.1571"/>
<path d="M780.379 238.706L838.122 397.546C841.615 407.155 855.406 406.542 858.033 396.66L861.059 385.272C861.609 383.202 861.51 381.013 860.774 379.001L796.822 204.132C794.698 198.324 788.021 195.623 782.456 198.321L731.071 223.233C725.976 225.703 723.777 231.782 726.112 236.94L727.733 240.521C730.214 245.999 736.796 248.256 742.116 245.454L765.695 233.033C771.297 230.082 778.216 232.755 780.379 238.706Z" fill="#D9EE61" stroke="#D9EE61" stroke-width="22.9791"/>
</svg>
