<svg width="573" height="262" viewBox="0 0 573 262" fill="none" xmlns="http://www.w3.org/2000/svg">
<path d="M755.53 213.064L590.524 212.689C585.4 212.677 581.066 208.895 580.361 203.82L562.261 73.6088C561.207 66.0265 552.534 62.2124 546.233 66.5602L414.461 157.49C409.886 160.646 403.632 159.598 400.337 155.122L299.06 17.5404C293.689 10.2431 282.189 12.9555 280.644 21.8842L257.696 154.542C256.888 159.215 252.99 162.729 248.259 163.05L78.276 174.579C68.4021 175.249 65.0796 188.113 73.3943 193.48L114.193 219.817L257.201 300.5C264.29 304.499 264.144 314.758 256.945 318.554L18.8488 444.103C9.58491 448.988 12.6978 462.977 23.1589 463.473L360.659 479.464C366.665 479.749 371.147 485.103 370.371 491.065L343.683 695.962C342.396 705.837 354.494 711.592 361.345 704.365L542.766 512.966C547.56 507.908 555.891 508.983 559.245 515.092L631.04 645.865C636.461 655.74 651.529 650.967 650.275 639.771L630.955 467.247C630.295 461.351 634.747 456.12 640.674 455.831L787.986 448.632C799.098 448.089 801.555 432.742 791.167 428.758L624.911 364.984C617.569 362.168 615.975 352.489 622.027 347.467L762.074 231.263C769.475 225.121 765.148 213.086 755.53 213.064Z" fill="#6552D0" stroke="#D9EE61" stroke-width="26.6667"/>
</svg>
