<svg width="478" height="311" viewBox="0 0 478 311" fill="none" xmlns="http://www.w3.org/2000/svg">
<path d="M451.193 271.903L287.638 250.063C282.559 249.385 278.754 245.072 278.715 239.948L277.709 108.489C277.651 100.834 269.548 95.9235 262.735 99.4147L120.253 172.428C115.307 174.962 109.242 173.109 106.557 168.242L24.0407 18.654C19.664 10.7199 7.90914 11.9131 5.21612 20.5649L-34.7957 149.11C-36.205 153.637 -40.5275 156.615 -45.2601 156.317L-215.298 145.634C-225.175 145.013 -230.143 157.335 -222.597 163.739L-185.572 195.16L-54.2757 293.763C-47.7676 298.65 -49.2467 308.803 -56.8789 311.63L-309.285 405.135C-319.106 408.773 -317.84 423.049 -307.532 424.901L25.0193 484.666C30.9373 485.729 34.6846 491.621 33.1389 497.432L-19.9797 697.115C-22.5398 706.738 -11.2939 714.019 -3.561 707.744L201.22 541.576C206.631 537.184 214.751 539.334 217.282 545.827L271.453 684.829C275.543 695.326 291.104 692.553 291.317 681.29L294.607 507.719C294.72 501.786 299.815 497.18 305.729 497.663L452.725 509.692C463.814 510.599 468.246 495.702 458.465 490.4L301.919 405.538C295.006 401.79 294.685 391.986 301.338 387.795L455.313 290.798C463.451 285.672 460.726 273.176 451.193 271.903Z" fill="#6552D0" stroke="#D9EE61" stroke-width="26.6667"/>
</svg>
