<svg width="583" height="565" viewBox="0 0 583 565" fill="none" xmlns="http://www.w3.org/2000/svg">
<path d="M568.912 336.198L468.461 263.915C465.341 261.67 464.35 257.472 466.136 254.069L511.96 166.767C514.628 161.683 511.006 155.571 505.265 155.47L385.208 153.374C381.04 153.301 377.685 149.93 377.63 145.763L375.954 17.6449C375.865 10.8495 367.668 7.48181 362.828 12.2517L290.906 83.1208C288.373 85.6171 284.461 86.0576 281.436 84.1872L172.752 16.9897C166.439 13.0864 158.796 19.4795 161.522 26.3832L174.898 60.2585L226.868 171.904C229.444 177.439 224.875 183.63 218.827 182.801L18.8204 155.385C11.0385 154.318 6.82782 164.208 12.9902 169.078L211.803 326.208C215.341 329.005 215.736 334.226 212.658 337.523L106.911 450.807C101.815 456.267 106.678 465.059 114.011 463.644L308.215 426.159C313.347 425.168 317.958 429.461 317.335 434.651L304.007 545.743C303.001 554.132 314.273 557.801 318.397 550.427L381.954 436.791C384.127 432.907 389.126 431.662 392.866 434.074L485.835 494.012C492.848 498.534 501.047 490.249 496.453 483.283L422.925 371.795C419.678 366.872 422.933 360.274 428.815 359.855L564.955 350.153C572.15 349.64 574.767 340.412 568.912 336.198Z" fill="#6552D0" stroke="#D9EE61" stroke-width="20"/>
</svg>
